<svg width="32" height="32" viewBox="0 0 32 32" fill="none" xmlns="http://www.w3.org/2000/svg">
<path d="M31.5925 10.3332L22.5657 2.27901C22.2563 2.00307 21.8141 1.92458 21.4265 2.07599L0.688763 10.1724C0.24275 10.3465 -0.0295788 10.783 0.003497 11.2431C0.00203992 11.266 0 11.2886 0 11.3116V15.898C0 16.4903 0.489142 16.9703 1.09281 16.9703C3.14788 16.9703 4.81944 18.6108 4.81944 20.6271C4.81944 22.6435 3.14788 24.2843 1.09281 24.2843C0.489142 24.2843 0 24.7643 0 25.3566V28.9277C0 29.52 0.489142 30 1.09281 30H30.9044C31.5081 30 31.9972 29.52 31.9972 28.9277V11.3116C31.9972 11.2969 31.9958 11.2824 31.9949 11.2677C31.998 11.235 32 11.2021 32 11.1686C32 10.8309 31.8409 10.5298 31.5925 10.3332ZM21.6001 4.31626L28.0781 10.0965H6.79539L21.6001 4.31626ZM29.8116 27.8554H2.18562V26.3294C4.92537 25.825 7.00507 23.4599 7.00507 20.6271C7.00507 17.7944 4.92537 15.4294 2.18562 14.925V12.2409H29.8116V27.8554Z" fill="#FFC800"/>
<path d="M25.3669 18.8517C26.1745 18.8517 26.8291 18.2093 26.8291 17.4169C26.8291 16.6245 26.1745 15.9822 25.3669 15.9822C24.5594 15.9822 23.9047 16.6245 23.9047 17.4169C23.9047 18.2093 24.5594 18.8517 25.3669 18.8517Z" fill="#FFC800"/>
<path d="M11.1643 20.2227C12.0044 20.2227 12.6855 19.5544 12.6855 18.73C12.6855 17.9056 12.0044 17.2373 11.1643 17.2373C10.3242 17.2373 9.64312 17.9056 9.64312 18.73C9.64312 19.5544 10.3242 20.2227 11.1643 20.2227Z" fill="#FFC800"/>
<path d="M21.9021 24.5236C23.0489 24.5236 23.9785 23.6115 23.9785 22.4862C23.9785 21.361 23.0489 20.4488 21.9021 20.4488C20.7554 20.4488 19.8258 21.361 19.8258 22.4862C19.8258 23.6115 20.7554 24.5236 21.9021 24.5236Z" fill="#FFC800"/>
<path d="M14.2943 25.8447C15.245 25.8447 16.0158 25.0884 16.0158 24.1555C16.0158 23.2225 15.245 22.4662 14.2943 22.4662C13.3435 22.4662 12.5727 23.2225 12.5727 24.1555C12.5727 25.0884 13.3435 25.8447 14.2943 25.8447Z" fill="#FFC800"/>
<path d="M17.901 17.731C18.8943 17.731 19.6996 16.9409 19.6996 15.9662C19.6996 14.9914 18.8943 14.2013 17.901 14.2013C16.9076 14.2013 16.1024 14.9914 16.1024 15.9662C16.1024 16.9409 16.9076 17.731 17.901 17.731Z" fill="#FFC800"/>
<path fill-rule="evenodd" clip-rule="evenodd" d="M29.8115 27.8555H2.18555V26.3295C4.9253 25.8251 7.00499 23.46 7.00499 20.6273C7.00499 17.7945 4.9253 15.4296 2.18555 14.9252V12.2411H29.8115V27.8555ZM25.3668 18.8518C26.1744 18.8518 26.829 18.2095 26.829 17.4171C26.829 16.6247 26.1744 15.9823 25.3668 15.9823C24.5593 15.9823 23.9047 16.6247 23.9047 17.4171C23.9047 18.2095 24.5593 18.8518 25.3668 18.8518ZM11.1642 20.2228C12.0044 20.2228 12.6854 19.5545 12.6854 18.7301C12.6854 17.9058 12.0044 17.2375 11.1642 17.2375C10.3241 17.2375 9.64304 17.9058 9.64304 18.7301C9.64304 19.5545 10.3241 20.2228 11.1642 20.2228ZM21.9021 24.5238C23.0488 24.5238 23.9784 23.6116 23.9784 22.4864C23.9784 21.3612 23.0488 20.449 21.9021 20.449C20.7553 20.449 19.8257 21.3612 19.8257 22.4864C19.8257 23.6116 20.7553 24.5238 21.9021 24.5238ZM14.2942 25.8449C15.245 25.8449 16.0157 25.0886 16.0157 24.1556C16.0157 23.2227 15.245 22.4664 14.2942 22.4664C13.3434 22.4664 12.5726 23.2227 12.5726 24.1556C12.5726 25.0886 13.3434 25.8449 14.2942 25.8449ZM17.9009 17.7312C18.8943 17.7312 19.6995 16.941 19.6995 15.9663C19.6995 14.9916 18.8943 14.2014 17.9009 14.2014C16.9076 14.2014 16.1023 14.9916 16.1023 15.9663C16.1023 16.941 16.9076 17.7312 17.9009 17.7312Z" fill="#FFF200"/>
<path d="M21.6 4.31641L28.078 10.0966H6.79532L21.6 4.31641Z" fill="#FFF200"/>
</svg>
