<svg width="32" height="32" viewBox="0 0 32 32" fill="none" xmlns="http://www.w3.org/2000/svg">
<rect width="32" height="32" rx="4" fill="white"/>
<path d="M12 8C12 9.10457 11.1046 10 10 10C8.89543 10 8 9.10457 8 8C8 6.89543 8.89543 6 10 6C11.1046 6 12 6.89543 12 8Z" fill="black"/>
<path d="M24 8C24 9.10457 23.1046 10 22 10C20.8954 10 20 9.10457 20 8C20 6.89543 20.8954 6 22 6C23.1046 6 24 6.89543 24 8Z" fill="black"/>
<path d="M12 24C12 25.1046 11.1046 26 10 26C8.89543 26 8 25.1046 8 24C8 22.8954 8.89543 22 10 22C11.1046 22 12 22.8954 12 24Z" fill="black"/>
<path d="M24 24C24 25.1046 23.1046 26 22 26C20.8954 26 20 25.1046 20 24C20 22.8954 20.8954 22 22 22C23.1046 22 24 22.8954 24 24Z" fill="black"/>
<path d="M12 16C12 17.1046 11.1046 18 10 18C8.89543 18 8 17.1046 8 16C8 14.8954 8.89543 14 10 14C11.1046 14 12 14.8954 12 16Z" fill="black"/>
<path d="M24 16C24 17.1046 23.1046 18 22 18C20.8954 18 20 17.1046 20 16C20 14.8954 20.8954 14 22 14C23.1046 14 24 14.8954 24 16Z" fill="black"/>
</svg>
